# xmcd CD database file
#
# Track frame offsets:
#	150
#	17547
#	35832
#	53642
#	68805
#	88032
#	106602
#	126839
#	144513
#	159321
#	175106
#	189339
#	202560
#	219493
#	240753
#	257027
#	270864
#	284034
#	298122
#	311771
#
# Disc length: 4318 seconds
#
# Revision: 3
# Processed by: cddbd v1.5.2PL0 Copyright (c) Steve Scherf et al.
# Submitted via: CDex 1.51
#
DISCID=1110dc14
DTITLE=Various Artist - NCT 051
DYEAR=2003
DGENRE=Country
TTITLE0=Alan Jackson ft. Jimmy Buffett - It's Five O'clock Somewhere
TTITLE1=Martina McBride - This One's For The Girls
TTITLE2=Gary Allan - Tough Little Boys
TTITLE3=Darryl Worley - Tennessee River Run
TTITLE4=Rodney Atkins - Honesty (Write Me A List)
TTITLE5=Jessica Andrews - Good Time
TTITLE6=Blake Shelton - Playboys Of The Southwestern World
TTITLE7=Rascal Flatts - I Melt
TTITLE8=Scotty Emerick - I Can't Take You Anywhere
TTITLE9=Chris Cagle - Chicks Dig It
TTITLE10=Diamond Rio - Wrinkles
TTITLE11=Marty Stuart - If There Ain't There Ought'a Be
TTITLE12=Ashley Gearing - Can You Hear Me When I Talk To You?
TTITLE13=Cross Canadian Ragweed - Anywhere But Here
TTITLE14=The Warren Brothers - Break The Record
TTITLE15=Billy Joe Shaver - Good OL' U S A
TTITLE16=Dean Miller - The Gun Ain't Loaded
TTITLE17=Phil Vassar - Ultimate Love
TTITLE18=Blue County - Good Little Girls
TTITLE19=Ray Benson ft. Dolly Parton - Leave That Cowboy Alone
EXTD=YEAR: 2003
EXTT0=
EXTT1=
EXTT2=
EXTT3=
EXTT4=
EXTT5=
EXTT6=
EXTT7=
EXTT8=
EXTT9=
EXTT10=
EXTT11=
EXTT12=
EXTT13=
EXTT14=
EXTT15=
EXTT16=
EXTT17=
EXTT18=
EXTT19=
PLAYORDER=
